<svg width="16" height="16" viewBox="0 0 16 16" fill="none" xmlns="http://www.w3.org/2000/svg">
<path d="M3.48578 13.8202C3.24629 13.8174 3.00976 13.7668 2.79018 13.6714C2.5706 13.5759 2.37241 13.4375 2.20728 13.2644C2.04215 13.0912 1.91345 12.8868 1.82874 12.6633C1.74404 12.4397 1.70504 12.2014 1.71409 11.9626C1.71409 11.6582 1.71409 11.3525 1.71409 11.022C1.61612 11.022 1.53196 11.022 1.44917 11.022C1.31703 11.0215 1.18628 10.9949 1.06444 10.9439C0.942591 10.8928 0.832034 10.8183 0.739105 10.7245C0.646176 10.6307 0.572701 10.5196 0.522886 10.3974C0.473071 10.2753 0.4479 10.1445 0.448809 10.0126C0.448809 9.51412 0.448809 9.01563 0.448809 8.51713C0.444463 8.37988 0.46818 8.24318 0.518524 8.11538C0.568867 7.98758 0.644774 7.87136 0.741615 7.77381C0.838456 7.67626 0.954205 7.59942 1.08179 7.548C1.20937 7.49657 1.34611 7.47163 1.48367 7.47469C1.721 7.47469 1.71547 7.51462 1.71823 7.24059C1.71823 6.93488 1.70719 6.62779 1.72926 6.32346C1.75802 5.87959 1.95504 5.46328 2.28028 5.15916C2.60552 4.85503 3.03457 4.6859 3.48026 4.68613C4.86007 4.68062 6.23529 4.68062 7.60591 4.68613C7.75907 4.68613 7.81011 4.6517 7.80597 4.49333C7.79356 4.09123 7.79632 3.68913 7.80597 3.28703C7.80971 3.2654 7.80909 3.24323 7.80415 3.22184C7.79922 3.20045 7.79007 3.18025 7.77722 3.16243C7.76438 3.14461 7.74809 3.12953 7.72934 3.11806C7.71058 3.10658 7.68973 3.09895 7.66799 3.09561C7.38146 3.00352 7.13698 2.8129 6.97812 2.55771C6.81925 2.30253 6.75632 1.99935 6.80052 1.70217C6.84472 1.405 6.99318 1.13313 7.21947 0.935004C7.44576 0.736875 7.73517 0.625354 8.03616 0.620297C8.33714 0.61524 8.63016 0.716979 8.863 0.907393C9.09584 1.09781 9.2534 1.36453 9.3076 1.66005C9.3618 1.95557 9.30911 2.2607 9.15894 2.52108C9.00877 2.78146 8.77088 2.98017 8.48761 3.08184C8.45868 3.08729 8.4311 3.09839 8.40648 3.11451C8.38185 3.13062 8.36066 3.15144 8.34412 3.17575C8.32758 3.20006 8.31602 3.2274 8.3101 3.25618C8.30417 3.28497 8.30401 3.31464 8.30961 3.34349C8.31927 3.71942 8.30961 4.09399 8.30961 4.46993C8.30961 4.68062 8.30961 4.68337 8.51658 4.68337C9.78463 4.68337 11.0513 4.68337 12.3193 4.68337C12.7333 4.68337 13.1265 4.69852 13.4881 4.91472C13.7624 5.0666 13.9909 5.2892 14.1496 5.55928C14.3084 5.82937 14.3915 6.13703 14.3904 6.45015C14.3987 6.72556 14.4015 7.00098 14.3904 7.27639C14.3904 7.43475 14.4263 7.48708 14.5947 7.48433C14.8408 7.46885 15.0839 7.54462 15.2775 7.69712C15.471 7.84961 15.6013 8.06807 15.6433 8.31057C15.657 8.38458 15.663 8.4598 15.6613 8.53503C15.6613 9.0115 15.6613 9.48934 15.6613 9.96581C15.6679 10.1059 15.6452 10.2457 15.5949 10.3766C15.5445 10.5075 15.4675 10.6266 15.3687 10.7262C15.2699 10.8259 15.1514 10.904 15.0208 10.9556C14.8902 11.0072 14.7502 11.0312 14.6098 11.0261C14.3932 11.0261 14.3932 11.0261 14.3932 11.2451C14.3932 11.5205 14.3932 11.7959 14.3932 12.081C14.3898 12.3125 14.3407 12.5411 14.2486 12.7537C14.1566 12.9662 14.0235 13.1586 13.8569 13.3198C13.6903 13.4809 13.4934 13.6077 13.2777 13.6929C13.0619 13.778 12.8314 13.8199 12.5995 13.8161C11.0817 13.823 9.56387 13.8161 8.05573 13.8161C7.70664 13.8161 7.35753 13.8161 7.00844 13.8161C6.91892 13.819 6.83179 13.8457 6.75594 13.8932C5.82502 14.5092 4.89549 15.1275 3.96734 15.7481C3.86661 15.8156 3.76726 15.8789 3.64032 15.8142C3.58635 15.7833 3.54314 15.7367 3.51651 15.6805C3.48987 15.6244 3.48106 15.5615 3.49129 15.5002C3.49129 15.0389 3.49129 14.5776 3.49129 14.1232L3.48578 13.8202ZM3.99769 15.1036C4.05978 15.0678 4.09152 15.0513 4.12188 15.0307C4.88077 14.5239 5.63967 14.0213 6.39719 13.5159C6.59568 13.3777 6.83272 13.3055 7.07468 13.3093C8.90064 13.3148 10.7266 13.3148 12.5525 13.3093C13.3446 13.3093 13.8841 12.7585 13.8841 11.9708C13.8841 10.1696 13.8841 8.36841 13.8841 6.56721C13.8841 5.74096 13.3528 5.19014 12.5222 5.19014H10.1544C7.93568 5.19014 5.71786 5.19014 3.50096 5.19014C3.33385 5.18758 3.16791 5.21826 3.01282 5.2804C2.85772 5.34254 2.71659 5.43489 2.59764 5.55205C2.4787 5.66922 2.38433 5.80886 2.32005 5.96282C2.25577 6.11678 2.22286 6.28198 2.22325 6.44877C2.22325 6.75999 2.22325 7.06983 2.22325 7.38105C2.22325 8.93576 2.22325 10.4905 2.22325 12.0452C2.22189 12.3683 2.34605 12.6793 2.56963 12.913C2.79322 13.1467 3.09884 13.2848 3.4223 13.2983C3.82797 13.3245 3.99493 13.5021 3.99493 13.9152C3.99907 14.3036 3.99769 14.6878 3.99769 15.1036ZM8.0502 2.65219C8.25045 2.65041 8.44202 2.57042 8.58387 2.42936C8.72573 2.2883 8.80658 2.0974 8.8091 1.89756C8.80992 1.74726 8.766 1.6001 8.68289 1.47475C8.59979 1.3494 8.48127 1.25151 8.34234 1.19349C8.20341 1.13547 8.05034 1.11993 7.90255 1.14885C7.75477 1.17777 7.61891 1.24985 7.51222 1.35593C7.40554 1.46202 7.33282 1.59734 7.3033 1.74473C7.27378 1.89212 7.2888 2.04493 7.34643 2.18379C7.40407 2.32266 7.50172 2.44131 7.62701 2.5247C7.75231 2.60809 7.8996 2.65247 8.0502 2.65219ZM14.3974 10.4946C14.8955 10.6103 15.17 10.2949 15.1507 9.91623C15.1286 9.4673 15.1507 9.017 15.1507 8.5667C15.1507 8.17837 14.9548 7.98696 14.5712 7.97732C14.4332 7.97732 14.3877 8.01312 14.3891 8.15634C14.3891 8.88894 14.3891 9.62292 14.3891 10.3596C14.3973 10.4037 14.3974 10.4505 14.3974 10.4946ZM1.71134 9.26488C1.71134 8.88481 1.71134 8.50473 1.71134 8.12604C1.71134 8.07784 1.66856 7.99659 1.63268 7.98833C1.55095 7.96452 1.46465 7.96082 1.38118 7.97756C1.2977 7.99429 1.21953 8.03096 1.15335 8.08442C1.08717 8.13788 1.03496 8.20654 1.00117 8.28454C0.967384 8.36253 0.953024 8.44754 0.959333 8.53228C0.959333 8.99772 0.959333 9.46317 0.959333 9.92862C0.959333 10.3307 1.15527 10.5153 1.55266 10.518C1.67822 10.518 1.72099 10.4836 1.71823 10.3541C1.70305 9.99197 1.71409 9.62842 1.71409 9.26488H1.71134Z" fill="#ffffff"/>
<path d="M9.82733 8.48947C9.82735 8.23826 9.9022 7.99272 10.0424 7.78407C10.1825 7.57541 10.3817 7.41305 10.6145 7.31762C10.8474 7.2222 11.1034 7.19801 11.35 7.24813C11.5967 7.29826 11.8229 7.42043 11.9998 7.59913C12.1767 7.77783 12.2964 8.00498 12.3436 8.25173C12.3909 8.49847 12.3636 8.75367 12.2652 8.98488C12.1667 9.2161 12.0017 9.4129 11.7909 9.55027C11.5802 9.68764 11.3333 9.75938 11.0816 9.75637C10.7474 9.75274 10.4282 9.61762 10.1934 9.38038C9.95849 9.14315 9.82695 8.82297 9.82733 8.48947ZM10.3392 8.48121C10.3374 8.58059 10.3553 8.67935 10.3919 8.77179C10.4285 8.86423 10.4831 8.94854 10.5525 9.01984C10.6219 9.09114 10.7047 9.14803 10.7962 9.18723C10.8877 9.22643 10.9861 9.24716 11.0857 9.24823C11.1863 9.24896 11.2861 9.22986 11.3793 9.19201C11.4725 9.15417 11.5573 9.09834 11.6288 9.02771C11.7004 8.95709 11.7572 8.87307 11.7962 8.78047C11.8351 8.68787 11.8553 8.58851 11.8557 8.48809C11.8557 8.28722 11.7757 8.09458 11.6334 7.95254C11.4911 7.81051 11.298 7.7307 11.0968 7.7307C10.8955 7.7307 10.7025 7.81051 10.5601 7.95254C10.4178 8.09458 10.3379 8.28722 10.3379 8.48809L10.3392 8.48121Z" fill="#ffffff"/>
<path d="M6.27859 8.47852C6.27994 8.72897 6.20688 8.9742 6.06865 9.18323C5.93042 9.39225 5.73321 9.55571 5.50194 9.65293C5.27067 9.75015 5.01573 9.77677 4.7693 9.72945C4.52287 9.68212 4.29602 9.56297 4.11742 9.38703C3.93882 9.21109 3.81648 8.98627 3.76585 8.74097C3.71522 8.49567 3.73858 8.24089 3.83297 8.00884C3.92736 7.77678 4.08855 7.57785 4.29618 7.43718C4.50381 7.29651 4.74855 7.22042 4.9995 7.21851C5.3361 7.21776 5.65938 7.34975 5.89894 7.58574C6.1385 7.82173 6.27495 8.14261 6.27859 8.47852ZM5.76805 8.49092C5.77006 8.29005 5.69203 8.0966 5.55114 7.95314C5.41024 7.80969 5.21802 7.72797 5.01674 7.72596C4.81547 7.72395 4.62165 7.80182 4.47791 7.94244C4.33416 8.08305 4.25226 8.2749 4.25025 8.47577C4.24925 8.57523 4.26791 8.67392 4.30513 8.76619C4.34234 8.85846 4.39739 8.94251 4.46716 9.01355C4.53693 9.08458 4.62003 9.1412 4.71173 9.18018C4.80342 9.21916 4.90191 9.23974 5.00157 9.24073C5.10123 9.24173 5.2001 9.22312 5.29256 9.18597C5.38501 9.14883 5.46923 9.09388 5.54041 9.02425C5.61158 8.95463 5.66832 8.87169 5.70738 8.78018C5.74644 8.68867 5.76705 8.59038 5.76805 8.49092Z" fill="#ffffff"/>
<path d="M8.05025 11.271C7.55903 11.271 7.10232 11.1636 6.72701 10.8234C6.67104 10.7736 6.62186 10.7166 6.58074 10.654C6.54548 10.6025 6.53128 10.5394 6.54102 10.4777C6.55077 10.416 6.58373 10.3604 6.63317 10.3222C6.65616 10.3009 6.68324 10.2846 6.71276 10.2742C6.74228 10.2637 6.77363 10.2594 6.80488 10.2615C6.83613 10.2635 6.86663 10.2719 6.89452 10.2862C6.92241 10.3004 6.94711 10.3201 6.96709 10.3442C7.30791 10.8344 8.3469 10.8675 8.8188 10.6045C8.92464 10.5419 9.02164 10.4655 9.10719 10.3772C9.15031 10.3226 9.21254 10.2863 9.28138 10.2756C9.35023 10.2648 9.4206 10.2805 9.47835 10.3194C9.50702 10.342 9.53049 10.3705 9.54717 10.4029C9.56386 10.4354 9.57337 10.471 9.57507 10.5074C9.57677 10.5439 9.57062 10.5802 9.55703 10.6141C9.54344 10.6479 9.52272 10.6784 9.49629 10.7036C9.18031 11.0837 8.74705 11.2214 8.27516 11.271C8.19651 11.2779 8.12062 11.271 8.05025 11.271Z" fill="#ffffff"/>
</svg>
