<svg width="16" height="16" viewBox="0 0 16 16" fill="none" xmlns="http://www.w3.org/2000/svg">
<g id="Group 940">
<path id="Vector" d="M8.00001 16.005C9.58225 16.005 11.129 15.5356 12.4446 14.6563C13.7602 13.777 14.7855 12.5272 15.391 11.0649C15.9965 9.60265 16.155 7.99362 15.8463 6.44129C15.5376 4.88895 14.7757 3.46305 13.6569 2.34388C12.538 1.22471 11.1126 0.462547 9.56073 0.153769C8.00888 -0.155009 6.40035 0.00346772 4.93855 0.609157C3.47674 1.21485 2.22732 2.24055 1.34827 3.55655C0.469222 4.87255 2.40188e-05 6.41975 2.40188e-05 8.00249C-0.00255516 9.05412 0.202607 10.0959 0.60373 11.068C1.00485 12.04 1.59404 12.9232 2.33742 13.6669C3.0808 14.4105 3.96373 14.9998 4.9355 15.4011C5.90727 15.8023 6.94871 16.0076 8.00001 16.005Z" fill="#2775CA"/>
<path id="Vector_2" d="M10.1989 9.26957C10.1989 8.10245 9.49932 7.70254 8.10009 7.53084C7.10063 7.39827 6.90074 7.13094 6.90074 6.66148C6.90074 6.19202 7.23316 5.89644 7.90019 5.89644C8.49986 5.89644 8.83228 6.09639 8.99958 6.59628C9.01726 6.64442 9.0492 6.68602 9.09113 6.71553C9.13305 6.74504 9.18298 6.76107 9.23424 6.76146H9.76656C9.79785 6.76406 9.82932 6.75984 9.85882 6.7491C9.88832 6.73836 9.91515 6.72136 9.93745 6.69926C9.95975 6.67716 9.97701 6.65048 9.98801 6.62108C9.99902 6.59167 10.0035 6.56022 10.0012 6.5289V6.49413C9.93576 6.13297 9.75326 5.80341 9.48191 5.55633C9.21056 5.30925 8.86545 5.1584 8.49986 5.12705V4.33376C8.49986 4.20118 8.39992 4.1012 8.23479 4.0686H7.73507C7.60036 4.0686 7.50041 4.16858 7.46781 4.33376V5.10097C6.46836 5.23572 5.83393 5.90079 5.83393 6.73538C5.83393 7.83512 6.50095 8.2698 7.90019 8.43498C8.83446 8.60233 9.13431 8.80229 9.13431 9.33695C9.13431 9.87161 8.66717 10.2367 8.03491 10.2367C7.16582 10.2367 6.86815 9.86943 6.7682 9.36737C6.75743 9.31243 6.72837 9.26275 6.68576 9.22643C6.64314 9.19012 6.58949 9.16932 6.53354 9.16742H5.96864C5.93758 9.16652 5.90666 9.17198 5.87779 9.18345C5.84891 9.19493 5.82267 9.21219 5.8007 9.23416C5.77873 9.25614 5.76148 9.28238 5.75 9.31127C5.73853 9.34015 5.73308 9.37108 5.73398 9.40215V9.42823C5.86869 10.2628 6.40101 10.8627 7.50041 11.0279V11.8298C7.50041 11.9624 7.60035 12.0624 7.76765 12.095H8.26738C8.39991 12.095 8.49987 11.995 8.53246 11.8298V11.0366C9.53191 10.8692 10.1989 10.1672 10.1989 9.26957Z" fill="white"/>
<path id="Vector_3" d="M6.29884 12.7709C5.34355 12.4152 4.51986 11.7758 3.93825 10.9384C3.35664 10.1011 3.04493 9.10579 3.04493 8.08615C3.04493 7.06651 3.35664 6.07125 3.93825 5.23388C4.51986 4.39651 5.34355 3.75708 6.29884 3.40137C6.36293 3.37346 6.41668 3.32617 6.45253 3.26613C6.48838 3.2061 6.50455 3.13635 6.49874 3.06666V2.60155C6.50373 2.54028 6.48616 2.47929 6.44935 2.43005C6.41254 2.38082 6.35901 2.34674 6.29884 2.33422C6.25188 2.32904 6.20467 2.34143 6.1663 2.369C4.95318 2.75516 3.89432 3.51736 3.1429 4.54534C2.39149 5.57332 1.98648 6.81377 1.98648 8.08724C1.98648 9.3607 2.39149 10.6012 3.1429 11.6291C3.89432 12.6571 4.95318 13.4193 6.1663 13.8055C6.19392 13.8217 6.22499 13.8311 6.25696 13.8329C6.28892 13.8347 6.32086 13.8289 6.35014 13.8159C6.37942 13.803 6.40521 13.7833 6.42537 13.7584C6.44554 13.7335 6.45952 13.7042 6.46614 13.6729C6.49873 13.6381 6.49874 13.6055 6.49874 13.5381V13.0709C6.4888 13.0095 6.46581 12.9509 6.43133 12.8992C6.39684 12.8475 6.35166 12.8037 6.29884 12.7709ZM9.83169 2.36683C9.80383 2.35113 9.77267 2.34219 9.74072 2.34074C9.70877 2.33929 9.67694 2.34537 9.64777 2.35848C9.6186 2.37158 9.59291 2.39136 9.57278 2.41622C9.55265 2.44107 9.53863 2.47031 9.53185 2.50158C9.49926 2.53418 9.49927 2.56678 9.49927 2.63415V3.10144C9.50457 3.16856 9.52537 3.23355 9.56006 3.29125C9.59475 3.34896 9.64237 3.39782 9.69916 3.43397C10.6544 3.78968 11.4781 4.42911 12.0597 5.26648C12.6414 6.10385 12.9531 7.09911 12.9531 8.11875C12.9531 9.13839 12.6414 10.1337 12.0597 10.971C11.4781 11.8084 10.6544 12.4478 9.69916 12.8035C9.63506 12.8314 9.58131 12.8787 9.54546 12.9388C9.50961 12.9988 9.49346 13.0686 9.49927 13.1382V13.6055C9.49435 13.6665 9.51198 13.7272 9.54883 13.7761C9.58567 13.825 9.63916 13.8586 9.69916 13.8707C9.74578 13.8755 9.79263 13.864 9.83169 13.8381C11.0445 13.4466 12.102 12.6805 12.8522 11.6499C13.6023 10.6193 14.0064 9.37727 14.0064 8.10245C14.0064 6.82763 13.6023 5.58564 12.8522 4.55504C12.102 3.52444 11.0445 2.75832 9.83169 2.36683Z" fill="white"/>
</g>
</svg>
