<svg width="95" height="36" viewBox="0 0 95 36" fill="none" xmlns="http://www.w3.org/2000/svg">
<g id="Layer_1">
<path id="Vector" d="M0.00110114 17.9562C-0.0132521 15.5792 0.448325 13.2233 1.35876 11.0267C2.26919 8.83017 3.61013 6.83721 5.30288 5.16481C6.99563 3.49241 9.00609 2.17428 11.2163 1.28776C13.4264 0.401241 15.7918 -0.0357998 18.1735 0.00229205C22.9253 0.0499346 27.4642 1.97636 30.7947 5.35903C34.1251 8.7417 35.9751 13.3044 35.939 18.0464C35.9591 22.7727 34.1031 27.3146 30.7768 30.679C27.4505 34.0435 22.9245 35.9567 18.1886 36.0004C15.7979 36.0407 13.4233 35.6023 11.2054 34.7112C8.98745 33.82 6.97116 32.4941 5.27556 30.8118C3.57997 29.1296 2.2395 27.1252 1.33356 24.9171C0.427615 22.709 -0.0254269 20.3421 0.00110114 17.9562ZM14.7379 25.625C14.7379 25.625 14.6324 25.9257 14.8735 26.031C15.1146 26.1362 15.2653 26.031 15.416 25.8205L15.8228 25.4295L17.4352 23.9258C17.6461 23.7003 17.8118 23.7003 18.0529 23.9258L19.8912 25.2641L22.1816 26.9482C22.3032 27.0595 22.4529 27.1355 22.6146 27.1679C22.7763 27.2004 22.9439 27.1881 23.0991 27.1323C23.2543 27.0766 23.3912 26.9795 23.4951 26.8516C23.599 26.7238 23.6659 26.57 23.6884 26.4069C23.7638 26.1513 23.809 25.8956 23.8693 25.6551C24.6076 22.1515 25.3762 18.6479 26.0994 15.1293C26.3104 14.1369 26.5364 13.1444 26.7172 12.1219C26.898 11.0994 26.2953 10.7085 25.3912 11.0092L24.909 11.2047L11.6338 16.3022L7.8818 17.8058C7.73767 17.8459 7.60957 17.9297 7.51512 18.0455C7.42066 18.1613 7.36454 18.3035 7.35445 18.4524C7.35445 18.7832 7.65581 18.8735 7.91197 18.9938L8.19827 19.099C9.3736 19.4599 10.5489 19.8057 11.6941 20.1967C11.9086 20.283 12.1417 20.3131 12.3711 20.2841C12.6006 20.2552 12.8188 20.1681 13.0051 20.0313L19.2584 16.0917C20.4036 15.3549 21.5638 14.588 22.7241 13.9264C22.8898 13.8211 23.1309 13.6707 23.2816 13.9264C23.4323 14.182 23.1761 14.2872 23.0405 14.4226L21.3076 15.9262C19.3638 17.6856 17.4351 19.4449 15.4762 21.1741C15.3054 21.3046 15.1646 21.4701 15.0633 21.6594C14.9619 21.8488 14.9024 22.0576 14.8886 22.2718C14.8735 23.3244 14.8132 24.407 14.7379 25.625Z" fill="white"/>
</g>
</svg>
