<svg width="95" height="36" viewBox="0 0 95 36" fill="none" xmlns="http://www.w3.org/2000/svg">
<g id="Layer_1">
<g id="Layer_1_2">
<path id="Vector_2" d="M76.4702 36C86.4113 36 94.4702 27.9411 94.4702 18C94.4702 8.05887 86.4113 0 76.4702 0C66.529 0 58.4702 8.05887 58.4702 18C58.4702 27.9411 66.529 36 76.4702 36Z" fill="white"/>
<path id="Vector_3" d="M85.7266 8.72095L85.4764 8.9971C84.9226 9.58925 84.3687 10.1814 83.8149 10.7735C83.3039 11.3191 82.7937 11.8662 82.2842 12.4147C81.8784 12.851 81.4749 13.2894 81.068 13.7245C80.5743 14.2505 80.0802 14.7765 79.5857 15.3026C79.243 15.6693 78.9008 16.0364 78.5588 16.4038C78.4901 16.4782 78.489 16.5165 78.5498 16.5966C78.7662 16.8851 78.986 17.1703 79.2013 17.46C79.6725 18.0935 80.1392 18.7303 80.6103 19.3627C80.9485 19.8136 81.2934 20.2644 81.6338 20.7153C81.8322 20.9779 82.0249 21.244 82.2222 21.5043C82.6235 22.0397 83.0281 22.574 83.4271 23.1106C83.8521 23.6809 84.2725 24.2547 84.6952 24.825C84.8947 25.0933 85.0988 25.3593 85.3005 25.6264C85.5677 25.9815 85.8326 26.3377 86.0997 26.6928C86.1471 26.7559 86.2023 26.8134 86.2428 26.8787C86.306 26.9791 86.2755 27.0399 86.1583 27.0467C86.0411 27.0535 85.9329 27.0467 85.8134 27.0467C84.1918 27.0467 82.5694 27.0467 80.9462 27.0467C80.8765 27.0508 80.8069 27.0364 80.7445 27.0049C80.6822 26.9735 80.6292 26.926 80.5911 26.8675C80.2428 26.3907 79.8833 25.9218 79.5293 25.4483C79.198 25.0042 78.8699 24.5568 78.5386 24.1126C78.1925 23.6471 77.8431 23.1838 77.4959 22.7183C77.2119 22.3373 76.9323 21.953 76.646 21.572C76.389 21.2338 76.1275 20.8957 75.8694 20.5474C75.7465 20.385 75.6282 20.2194 75.5064 20.0559C75.482 20.0218 75.4557 19.989 75.4275 19.9578C75.3362 19.8564 75.308 19.8564 75.2156 19.9578C75.0015 20.1833 74.7895 20.4177 74.5754 20.6477L72.6885 22.6653C72.1733 23.2154 71.656 23.7632 71.142 24.3133C70.4108 25.0978 69.68 25.8827 68.9496 26.668C68.8572 26.7672 68.7602 26.863 68.6678 26.9633C68.6435 26.9908 68.6134 27.0127 68.5797 27.0273C68.546 27.0419 68.5095 27.0489 68.4728 27.0478C68.049 27.0478 67.6252 27.0478 67.2013 27.0478C67.158 27.039 67.1165 27.023 67.0785 27.0005C67.0895 26.9568 67.1078 26.9153 67.1326 26.8776C67.3152 26.677 67.5034 26.4809 67.6894 26.2825L68.6858 25.2161C68.9579 24.9268 69.2299 24.6368 69.5019 24.346L71.1375 22.5898C71.6334 22.0585 72.1309 21.528 72.6299 20.9982C73.1694 20.4234 73.7104 19.8485 74.253 19.2736C74.3432 19.1789 74.4311 19.082 74.5179 18.9851C74.6047 18.8882 74.5968 18.8656 74.5247 18.7675L73.916 17.9481C73.4786 17.3619 73.0413 16.7758 72.6039 16.1897C72.2906 15.7704 71.9768 15.3522 71.6627 14.9351C71.0811 14.1551 70.4995 13.3755 69.9179 12.5962C69.5493 12.1025 69.1762 11.6099 68.8076 11.1162C68.4063 10.5797 68.0084 10.042 67.6083 9.50546C67.4482 9.2913 67.287 9.0794 67.1269 8.86636C67.0943 8.8224 67.0232 8.77844 67.0717 8.72208C67.1157 8.68817 67.1707 8.67169 67.2261 8.67584C67.3986 8.67021 67.5711 8.67584 67.7446 8.67584C69.2934 8.67584 70.8421 8.67584 72.392 8.67584C72.4668 8.67111 72.5414 8.6865 72.6082 8.7204C72.675 8.7543 72.7315 8.80549 72.7719 8.86862C73.0864 9.30596 73.4166 9.73204 73.739 10.1637C74.1673 10.7375 74.5934 11.3135 75.0229 11.8861C75.2382 12.1758 75.4591 12.4609 75.6755 12.7495C75.9077 13.0595 76.1354 13.3728 76.3665 13.6828C76.522 13.8925 76.681 14.0999 76.8376 14.3095C77.0856 14.6398 77.3347 14.97 77.5793 15.3026C77.736 15.5156 77.7608 15.519 77.9389 15.3296C78.33 14.9137 78.7279 14.5012 79.1123 14.0841C79.4268 13.7459 79.7345 13.4078 80.0479 13.0696C80.3105 12.7867 80.5776 12.506 80.8369 12.2242C81.3757 11.6471 81.9145 11.0696 82.4533 10.4918C82.7531 10.1716 83.0574 9.85489 83.355 9.53477C83.5804 9.29017 83.8126 9.04557 84.0313 8.79759C84.0636 8.76036 84.1039 8.73089 84.1492 8.71137C84.1945 8.69186 84.2436 8.6828 84.2928 8.68487C84.7009 8.68487 85.1089 8.68487 85.517 8.68487C85.5878 8.69065 85.6579 8.70273 85.7266 8.72095ZM70.7689 9.88534H69.6225C69.5966 9.88364 69.5706 9.88364 69.5447 9.88534C69.4771 9.89661 69.4534 9.93606 69.4782 9.99806C69.4892 10.0216 69.5032 10.0436 69.52 10.0634C69.7454 10.364 69.9708 10.6646 70.1963 10.9652C70.4916 11.3585 70.788 11.7542 71.0822 12.1431C71.2953 12.4282 71.5038 12.7157 71.7168 13.0009C72.0358 13.4269 72.3582 13.8519 72.6783 14.2768C72.9207 14.5992 73.1596 14.9227 73.402 15.2439C73.6274 15.5449 73.8529 15.8447 74.0783 16.1457C74.4164 16.5966 74.7467 17.0475 75.0804 17.4904L75.7105 18.3324C75.8833 18.5624 76.0561 18.7919 76.229 19.0211C76.3732 19.2128 76.5231 19.4021 76.6663 19.5949C76.9041 19.9128 77.1352 20.2363 77.3742 20.553C77.6977 20.9836 78.0279 21.4085 78.3503 21.8391C78.6479 22.2359 78.9387 22.6383 79.2352 23.0362C79.5316 23.4341 79.8269 23.8252 80.1222 24.2152C80.4829 24.6954 80.8425 25.1767 81.201 25.6591C81.2383 25.7156 81.2901 25.7611 81.351 25.7908C81.4118 25.8205 81.4795 25.8334 81.547 25.8282C81.866 25.8215 82.185 25.8282 82.504 25.8282H83.7912C83.8476 25.8282 83.9231 25.8384 83.9378 25.7707C83.9468 25.7335 83.9085 25.6772 83.8791 25.6388C83.5711 25.2233 83.2618 24.81 82.9515 24.3989C82.6888 24.0472 82.4273 23.6945 82.1624 23.3439L81.1638 22.0149L80.4581 21.0749L79.5823 19.9082C79.3569 19.5983 79.1224 19.286 78.8914 18.9772C78.4585 18.3989 78.0234 17.8241 77.5906 17.2458C77.2806 16.8322 76.974 16.4151 76.6629 16.0059C76.185 15.3702 75.7037 14.739 75.2258 14.1033C74.9113 13.6862 74.6036 13.2635 74.2902 12.8453C73.863 12.2817 73.4335 11.7114 73.0063 11.1421C72.7336 10.7792 72.4596 10.4162 72.1948 10.0476C72.1605 9.99539 72.1128 9.95327 72.0567 9.92571C72.0006 9.89815 71.9381 9.88615 71.8758 9.89095C71.5117 9.8887 71.1397 9.88534 70.7689 9.88534Z" fill="#01193B"/>
</g>
</g>
</svg>
