<svg width="60" height="60" viewBox="0 0 60 60" fill="none" xmlns="http://www.w3.org/2000/svg">
<g id="Layer_1">
<path id="Vector" d="M56.2973 15.5134C55.6786 16.8016 54.7793 17.9348 53.6652 18.8297C52.5512 19.7247 51.2507 20.3587 49.8595 20.6851C52.0113 25.2849 52.4896 30.4916 51.2117 35.4065C49.9338 40.3213 46.9799 44.6357 42.8601 47.6048C38.7403 50.5739 33.713 52.0113 28.6463 51.6689C23.5796 51.3265 18.7915 49.2258 15.1086 45.7294C11.4257 42.233 9.07911 37.5605 8.47406 32.5184C7.86901 27.4763 9.04344 22.3812 11.7946 18.1128C14.5457 13.8443 18.7009 10.6704 23.5427 9.13894C28.3845 7.60752 33.6091 7.81473 38.3145 9.72479C38.3322 9.59296 38.3573 9.46221 38.3896 9.33317C38.6595 8.11111 39.1661 6.95377 39.881 5.92653C40.6016 4.90689 41.5124 4.03613 42.5634 3.36215C42.7565 3.24413 42.9443 3.13146 43.1374 3.02953C36.6986 -0.10686 29.3501 -0.836205 22.4204 0.97334C15.4906 2.78288 9.43692 7.01192 5.35355 12.8959C1.27018 18.78 -0.573416 25.9307 0.156075 33.0556C0.885566 40.1804 4.14 46.8092 9.33104 51.7437C14.5221 56.6781 21.3072 59.5926 28.4599 59.9603C35.6125 60.328 42.6607 58.1247 48.3304 53.7485C54 49.3724 57.917 43.1122 59.3733 36.0998C60.8295 29.0873 59.7289 21.7851 56.2704 15.5134H56.2973Z" fill="#2156DC"/>
<path id="Vector_2" d="M30.1117 43.6035C37.6464 43.6035 43.7544 37.4954 43.7544 29.9608C43.7544 22.4261 37.6464 16.3181 30.1117 16.3181C22.5771 16.3181 16.4691 22.4261 16.4691 29.9608C16.4691 37.4954 22.5771 43.6035 30.1117 43.6035Z" fill="#01193B"/>
<path id="Vector_3" d="M47.6975 18.228C51.4633 18.228 54.5162 15.1752 54.5162 11.4094C54.5162 7.64351 51.4633 4.5907 47.6975 4.5907C43.9317 4.5907 40.8788 7.64351 40.8788 11.4094C40.8788 15.1752 43.9317 18.228 47.6975 18.228Z" fill="#01193B"/>
</g>
</svg>
