<svg width="67" height="91" viewBox="0 0 67 91" fill="none" xmlns="http://www.w3.org/2000/svg">
<path d="M24.0216 63.3118L49.0008 51.458L48.8894 51.397C66.6558 56.1529 60.2942 64.3535 58.5341 66.2286L9.40186 90.1374L24.0216 63.3118Z" fill="url(#paint0_linear_79_1420)"/>
<path d="M60.5457 64.9605C59.9145 65.4457 59.2413 65.8736 58.5341 66.2393C63.9222 60.1328 58.1749 56.4725 58.1749 56.4725L34.7188 43.6847L54.2057 34.4028C57.1803 35.3363 59.8597 37.0302 61.9789 39.3168C66.548 44.299 66.6163 50.2834 66.6127 51.7633C66.61 54.3942 66.03 56.9925 64.9137 59.3749C63.9326 61.5637 62.4334 63.4807 60.5457 64.9605Z" fill="url(#paint1_linear_79_1420)"/>
<path d="M43.1203 27.7252L18.1447 39.579L18.256 39.6437C0.48966 34.8842 6.85121 26.6835 8.61132 24.8084L57.7436 0.9104L43.1203 27.7252Z" fill="url(#paint2_linear_79_1420)"/>
<path d="M6.59995 26.0764C7.2306 25.5904 7.90386 25.1624 8.61151 24.7976C3.22341 30.9041 8.97072 34.5644 8.97072 34.5644L32.4269 47.3522L12.94 56.6341C9.96909 55.7025 7.29239 54.0126 5.1739 51.7309C0.604793 46.7487 0.536546 40.7643 0.540138 39.2844C0.544733 36.6541 1.12335 34.0564 2.23559 31.6728C3.21617 29.4817 4.71381 27.5613 6.59995 26.0764Z" fill="url(#paint3_linear_79_1420)"/>
<defs>
<linearGradient id="paint0_linear_79_1420" x1="28.0232" y1="89.436" x2="53.4803" y2="42.7444" gradientUnits="userSpaceOnUse">
<stop stop-color="#FF6E30"/>
<stop offset="1" stop-color="#E93E3A"/>
</linearGradient>
<linearGradient id="paint1_linear_79_1420" x1="57.1756" y1="38.0452" x2="40.0907" y2="69.3811" gradientUnits="userSpaceOnUse">
<stop stop-color="#FF6E30"/>
<stop offset="1" stop-color="#E93E3A"/>
</linearGradient>
<linearGradient id="paint2_linear_79_1420" x1="39.1287" y1="1.60647" x2="13.6699" y2="48.3012" gradientUnits="userSpaceOnUse">
<stop stop-color="#FF6E30"/>
<stop offset="1" stop-color="#E93E3A"/>
</linearGradient>
<linearGradient id="paint3_linear_79_1420" x1="9.97341" y1="52.9954" x2="27.0566" y2="21.6626" gradientUnits="userSpaceOnUse">
<stop stop-color="#FF6E30"/>
<stop offset="1" stop-color="#E93E3A"/>
</linearGradient>
</defs>
</svg>
